<?xml version="1.0" encoding="UTF-8"?>
<svg width="446px" height="186px" viewBox="0 0 446 186" version="1.1" xmlns="http://www.w3.org/2000/svg" xmlns:xlink="http://www.w3.org/1999/xlink">
    <!-- Generator: Sketch 51.3 (57544) - http://www.bohemiancoding.com/sketch -->
    <title>Group 3</title>
    <desc>Created with Sketch.</desc>
    <defs>
        <path d="M0.521449423,0.454545455 L447.436343,186.727273 L8.52144942,186.727273 C4.10317142,186.727273 0.521449423,183.145551 0.521449423,178.727273 L0.521449423,0.454545455 Z" id="path-1"></path>
    </defs>
    <g id="home" stroke="none" stroke-width="1" fill="none" fill-rule="evenodd">
        <g id="Desktop-HD" transform="translate(-483.000000, -246.000000)">
            <g id="Group-2" transform="translate(434.000000, 228.000000)">
                <g id="Group-3" transform="translate(47.000000, 18.000000)">
                    <mask id="mask-2" fill="white">
                        <use xlink:href="#path-1"></use>
                    </mask>
                    <use id="Rectangle-4" fill="#B4F9EF" transform="translate(223.978896, 93.590909) scale(-1, 1) translate(-223.978896, -93.590909) " xlink:href="#path-1"></use>
                    <path d="M427.344,104.2 L427.344,77.128 C431.088019,76.3599962 434.399986,75.0400094 437.28,73.168 C440.160014,71.2959906 442.55999,69.0160134 444.48,66.328 C446.40001,63.6399866 447.863995,60.6160168 448.872,57.256 C449.880005,53.8959832 450.384,50.3440187 450.384,46.6 C450.384,42.1839779 449.640007,38.0320194 448.152,34.144 C446.663993,30.2559806 444.576013,26.8720144 441.888,23.992 C439.199987,21.1119856 435.960019,18.8320084 432.168,17.152 C428.375981,15.4719916 424.224023,14.632 419.712,14.632 C415.103977,14.632 410.928019,15.4719916 407.184,17.152 C403.439981,18.8320084 400.200014,21.1359854 397.464,24.064 C394.727986,26.9920146 392.616007,30.4239803 391.128,34.36 C389.639993,38.2960197 388.896,42.4719779 388.896,46.888 C388.896,54.6640389 390.791981,61.1919736 394.584,66.472 C398.376019,71.7520264 404.063962,75.3039909 411.648,77.128 L411.648,104.2 L372.624,104.2 L372.624,91.096 L398.976,91.096 L398.976,84.328 C394.559978,82.8879928 390.720016,80.9200125 387.456,78.424 C384.191984,75.9279875 381.456011,73.0000168 379.248,69.64 C377.039989,66.2799832 375.384006,62.5840202 374.28,58.552 C373.175994,54.5199798 372.624,50.2480226 372.624,45.736 C372.624,39.1119669 373.847988,33.0160278 376.296,27.448 C378.744012,21.8799722 382.103979,17.1040199 386.376,13.12 C390.648021,9.13598008 395.615972,6.01601128 401.28,3.76 C406.944028,1.50398872 413.039967,0.376 419.568,0.376 C426.096033,0.376 432.215971,1.4559892 437.928,3.616 C443.640029,5.7760108 448.607979,8.82398032 452.832,12.76 C457.056021,16.6960197 460.391988,21.4239724 462.84,26.944 C465.288012,32.4640276 466.512,38.5839664 466.512,45.304 C466.512,49.8160226 465.984005,54.1359794 464.928,58.264 C463.871995,62.3920206 462.240011,66.159983 460.032,69.568 C457.823989,72.976017 455.064017,75.9519873 451.752,78.496 C448.439983,81.0400127 444.528023,82.9839933 440.016,84.328 L440.016,91.096 L466.512,91.096 L466.512,104.2 L427.344,104.2 Z" id="Ω" fill-opacity="0.0860507246" fill="#2F72FB" mask="url(#mask-2)" transform="translate(419.568000, 52.288000) rotate(5.000000) translate(-419.568000, -52.288000) "></path>
                    <path d="M90.86,170.940002 C90.86,171.300003 90.9233327,171.513335 91.05,171.580002 C91.1766673,171.646669 91.3266658,171.680002 91.5,171.680002 L91.64,171.680002 C91.6933336,171.680002 91.7433331,171.676668 91.79,171.670002 C91.8366669,171.663335 91.893333,171.653335 91.96,171.640002 L91.96,173.220002 C91.7866658,173.286669 91.5500015,173.346668 91.25,173.400002 C90.9499985,173.453335 90.700001,173.480002 90.5,173.480002 C89.8599968,173.480002 89.406668,173.32667 89.14,173.020002 C88.873332,172.713333 88.7133336,172.266671 88.66,171.680002 L88.6,171.680002 C88.2799984,172.320005 87.8333362,172.773334 87.26,173.040002 C86.6866638,173.30667 86.033337,173.440002 85.3,173.440002 C84.5266628,173.440002 83.8533362,173.28667 83.28,172.980002 C82.7066638,172.673333 82.2300019,172.266671 81.85,171.760002 C81.4699981,171.253332 81.1866676,170.673338 81,170.020002 C80.8133324,169.366665 80.72,168.693338 80.72,168.000002 C80.72,167.306665 80.8166657,166.633338 81.01,165.980002 C81.2033343,165.326665 81.4966647,164.746671 81.89,164.240002 C82.2833353,163.733332 82.7833303,163.330003 83.39,163.030002 C83.9966697,162.73 84.7133292,162.580002 85.54,162.580002 C86.1800032,162.580002 86.766664,162.733333 87.3,163.040002 C87.833336,163.34667 88.2466652,163.746666 88.54,164.240002 L88.58,164.240002 L88.58,162.860002 L90.86,162.860002 L90.86,170.940002 Z M83,168.000002 C83,168.42667 83.0533328,168.859999 83.16,169.300002 C83.2666672,169.740004 83.4299989,170.136666 83.65,170.490002 C83.8700011,170.843337 84.1533316,171.13 84.5,171.350002 C84.8466684,171.570003 85.2666642,171.680002 85.76,171.680002 C86.3066694,171.680002 86.7666648,171.570003 87.14,171.350002 C87.5133352,171.13 87.8133322,170.843337 88.04,170.490002 C88.2666678,170.136666 88.4299995,169.73667 88.53,169.290002 C88.6300005,168.843333 88.68,168.386671 88.68,167.920002 C88.68,167.426666 88.6233339,166.96667 88.51,166.540002 C88.3966661,166.113333 88.2233345,165.740003 87.99,165.420002 C87.7566655,165.1 87.4666684,164.846669 87.12,164.660002 C86.7733316,164.473334 86.366669,164.380002 85.9,164.380002 C85.3399972,164.380002 84.8733352,164.483334 84.5,164.690002 C84.1266648,164.896669 83.8300011,165.17 83.61,165.510002 C83.3899989,165.850003 83.2333338,166.236666 83.14,166.670002 C83.0466662,167.103337 83,167.546666 83,168.000002 Z" id="α" fill-opacity="0.612460371" fill="#F7CEFF" mask="url(#mask-2)"></path>
                    <path d="M161.568,161.368004 C160.671996,161.794673 159.808004,162.114669 158.976,162.328004 C158.143996,162.541338 157.237338,162.648004 156.256,162.648004 C154.847993,162.648004 153.717338,162.434673 152.864,162.008004 C152.010662,161.581335 151.360002,160.994674 150.912,160.248004 C150.463998,159.501333 150.176001,158.616009 150.048,157.592004 C149.919999,156.567999 149.856,155.48001 149.856,154.328004 L149.856,135.256004 L136.352,135.256004 L136.352,162.200004 L129.888,162.200004 L129.888,135.256004 L125.408,135.256004 L125.408,129.112004 L161.376,129.112004 L161.376,135.256004 L156.32,135.256004 L156.32,153.368004 C156.32,153.837339 156.330667,154.296002 156.352,154.744004 C156.373333,155.192006 156.469332,155.597335 156.64,155.960004 C156.810668,156.322672 157.055998,156.610669 157.376,156.824004 C157.696002,157.037338 158.154664,157.144004 158.752,157.144004 C159.648004,157.144004 160.586662,156.930673 161.568,156.504004 L161.568,161.368004 Z" id="π" fill-opacity="0.0860507246" fill="#2F72FB" mask="url(#mask-2)" transform="translate(143.488000, 145.880004) rotate(-5.000000) translate(-143.488000, -145.880004) "></path>
                    <path d="M187.916379,174.626539 C184.820364,174.626539 182.582386,174.026545 181.202379,172.826539 C179.822373,171.626533 179.132379,169.790552 179.132379,167.318539 L179.132379,155.510539 L183.236379,155.510539 L183.236379,166.922539 C183.236379,168.578548 183.620376,169.736536 184.388379,170.396539 C185.156383,171.056543 186.332372,171.386539 187.916379,171.386539 L187.916379,150.146539 L192.020379,150.146539 L192.020379,171.386539 C192.812383,171.386539 193.538376,171.194541 194.198379,170.810539 C194.858383,170.426537 195.422377,169.904543 195.890379,169.244539 C196.358382,168.584536 196.718378,167.822544 196.970379,166.958539 C197.222381,166.094535 197.348379,165.182544 197.348379,164.222539 C197.348379,163.022533 197.27638,161.966544 197.132379,161.054539 C196.988379,160.142535 196.796381,159.332543 196.556379,158.624539 C196.316378,157.916536 196.052381,157.310542 195.764379,156.806539 C195.476378,156.302537 195.176381,155.870541 194.864379,155.510539 L199.364379,155.510539 C199.55638,155.846541 199.772378,156.266537 200.012379,156.770539 C200.252381,157.274542 200.480378,157.880536 200.696379,158.588539 C200.912381,159.296543 201.092379,160.124535 201.236379,161.072539 C201.38038,162.020544 201.452379,163.106533 201.452379,164.330539 C201.452379,165.890547 201.224382,167.300533 200.768379,168.560539 C200.312377,169.820546 199.670384,170.900535 198.842379,171.800539 C198.014375,172.700544 197.018385,173.396537 195.854379,173.888539 C194.690374,174.380542 193.412386,174.626539 192.020379,174.626539 L192.020379,180.998539 L187.916379,180.998539 L187.916379,174.626539 Z" id="ψ" fill-opacity="0.26805933" fill="#FFD076" mask="url(#mask-2)" transform="translate(190.292379, 165.572539) rotate(20.000000) translate(-190.292379, -165.572539) "></path>
                    <path d="M233.504,159.208004 C230.767986,159.208004 228.41601,158.848007 226.448,158.128004 C224.47999,157.408 222.848006,156.38801 221.552,155.068004 C220.255994,153.747997 219.296003,152.164013 218.672,150.316004 C218.047997,148.467995 217.736,146.440015 217.736,144.232004 C217.736,140.775987 218.563992,137.932015 220.22,135.700004 C221.876008,133.467993 224.263984,131.872009 227.384,130.912004 L227.384,130.768004 C225.127989,130.048 223.244008,128.668014 221.732,126.628004 C220.219992,124.587994 219.464,122.080019 219.464,119.104004 C219.464,116.799992 219.895996,114.796012 220.76,113.092004 C221.624004,111.387995 222.787993,109.984009 224.252,108.880004 C225.716007,107.775998 227.43199,106.948007 229.4,106.396004 C231.36801,105.844001 233.455989,105.568004 235.664,105.568004 C237.344008,105.568004 239.047991,105.676003 240.776,105.892004 C242.504009,106.108005 244.087993,106.504001 245.528,107.080004 L245.528,114.640004 C243.991992,113.824 242.372009,113.188006 240.668,112.732004 C238.963991,112.276002 237.296008,112.048004 235.664,112.048004 C233.071987,112.048004 231.092007,112.599998 229.724,113.704004 C228.355993,114.808009 227.672,116.72799 227.672,119.464004 C227.672,121.816016 228.391993,123.747996 229.832,125.260004 C231.272007,126.772011 233.695983,127.528004 237.104,127.528004 L243.8,127.528004 L243.8,133.936004 L236.816,133.936004 C234.75199,133.936004 233.024007,134.128002 231.632,134.512004 C230.239993,134.896006 229.124004,135.484 228.284,136.276004 C227.443996,137.068008 226.844002,138.063998 226.484,139.264004 C226.123998,140.46401 225.944,141.855996 225.944,143.440004 C225.944,149.632035 228.871971,152.728004 234.728,152.728004 L237.752,152.728004 C241.208017,152.728004 243.775992,153.423997 245.456,154.816004 C247.136008,156.208011 247.976,158.559987 247.976,161.872004 C247.976,163.264011 247.928,164.499998 247.832,165.580004 C247.736,166.660009 247.496002,167.895997 247.112,169.288004 L238.976,169.288004 C239.312002,167.799996 239.551999,166.588008 239.696,165.652004 C239.840001,164.715999 239.912,163.864008 239.912,163.096004 C239.912,161.703997 239.684002,160.708007 239.228,160.108004 C238.771998,159.508001 237.800007,159.208004 236.312,159.208004 L233.504,159.208004 Z" id="ξ" fill-opacity="0.0860507246" fill="#2F72FB" mask="url(#mask-2)"></path>
                    <path d="M303.224,165.551999 C305.528012,165.551999 307.167995,166.087994 308.144,167.159999 C309.120005,168.232005 309.608,169.72799 309.608,171.647999 C309.608,172.576004 309.568,173.399996 309.488,174.119999 C309.408,174.840003 309.240001,175.663995 308.984,176.591999 L303.608,176.591999 C303.864001,175.599994 304.032,174.776003 304.112,174.119999 C304.192,173.463996 304.232,172.880002 304.232,172.367999 C304.232,171.503995 304.048002,170.872001 303.68,170.471999 C303.311998,170.071997 302.616005,169.871999 301.592,169.871999 L300.536,169.871999 C298.775991,169.871999 297.176007,169.552002 295.736,168.911999 C294.295993,168.271996 293.064005,167.368005 292.04,166.199999 C291.015995,165.031993 290.224003,163.632007 289.664,161.999999 C289.103997,160.367991 288.824,158.576009 288.824,156.623999 C288.824,154.607989 289.119997,152.712008 289.712,150.935999 C290.304003,149.15999 291.103995,147.528007 292.112,146.039999 C293.120005,144.551992 294.287993,143.240005 295.616,142.103999 C296.944007,140.967994 298.359992,140.016003 299.864,139.247999 L290.84,139.247999 L290.84,134.927999 L309.176,134.927999 L309.176,138.911999 C306.327986,139.968005 303.94401,141.111993 302.024,142.343999 C300.10399,143.576005 298.568006,144.919992 297.416,146.375999 C296.263994,147.832007 295.448002,149.407991 294.968,151.103999 C294.487998,152.800008 294.28,154.639989 294.344,156.623999 C294.44,159.568014 295.103994,161.791992 296.336,163.295999 C297.568006,164.800007 299.367988,165.551999 301.736,165.551999 L303.224,165.551999 Z" id="ζ" fill-opacity="0.27233356" fill="#FF9EC6" mask="url(#mask-2)" transform="translate(299.216000, 155.759999) rotate(-30.000000) translate(-299.216000, -155.759999) "></path>
                    <path d="M269.304,100.832 L265.2,100.832 L265.2,108.488 C265.2,108.920003 265.275999,109.176 265.428,109.256 C265.580001,109.336001 265.759999,109.376 265.968,109.376 L266.136,109.376 C266.2,109.376 266.26,109.372 266.316,109.364 C266.372,109.356 266.44,109.344 266.52,109.328 L266.52,111.224 C266.311999,111.304001 266.028002,111.376 265.668,111.44 C265.307998,111.504001 265.008001,111.536 264.768,111.536 C263.967996,111.536 263.384002,111.328002 263.016,110.912 C262.647998,110.495998 262.464,109.888004 262.464,109.088 L262.464,100.832 L258.192,100.832 L258.192,98.7920004 L269.304,98.7920004 L269.304,100.832 Z" id="τ" fill-opacity="0.612460371" fill="#F7CEFF" mask="url(#mask-2)"></path>
                    <path d="M364.496,142.775999 C364.496,143.640004 364.647998,144.151998 364.952,144.311999 C365.256002,144.472 365.615998,144.551999 366.032,144.551999 L366.368,144.551999 C366.496001,144.551999 366.615999,144.543999 366.728,144.527999 C366.840001,144.511999 366.975999,144.487999 367.136,144.455999 L367.136,148.247999 C366.719998,148.408 366.152004,148.551999 365.432,148.679999 C364.711996,148.808 364.112002,148.871999 363.632,148.871999 C362.031992,148.871999 360.864004,148.456003 360.128,147.623999 C359.391996,146.791995 359.024,145.576007 359.024,143.975999 L359.024,123.383999 L364.496,123.383999 L364.496,142.775999 Z" id="ι" fill-opacity="0.27233356" fill="#FF9EC6" mask="url(#mask-2)"></path>
                    <path d="M433.304,136.752 C434.360005,136.752 435.279996,136.496003 436.064,135.984 C436.848004,135.471997 437.487998,134.776004 437.984,133.896 C438.480002,133.015996 438.847999,132.000006 439.088,130.848 C439.328001,129.695994 439.448,128.480006 439.448,127.2 C439.448,125.599992 439.352001,124.192006 439.16,122.976 C438.967999,121.759994 438.712002,120.680005 438.392,119.736 C438.071998,118.791995 437.720002,117.984003 437.336,117.312 C436.951998,116.639997 436.552002,116.064002 436.136,115.584 L442.136,115.584 C442.392001,116.032002 442.679998,116.591997 443,117.264 C443.320002,117.936003 443.623999,118.743995 443.912,119.688 C444.200001,120.632005 444.439999,121.735994 444.632,123 C444.824001,124.264006 444.92,125.711992 444.92,127.344 C444.92,129.42401 444.640003,131.303992 444.08,132.984 C443.519997,134.664008 442.720005,136.103994 441.68,137.304 C440.639995,138.504006 439.368008,139.431997 437.864,140.088 C436.359992,140.744003 434.680009,141.072 432.824,141.072 C430.77599,141.072 429.056007,140.872002 427.664,140.472 C426.271993,140.071998 425.144004,139.464004 424.28,138.648 C423.415996,137.831996 422.800002,136.816006 422.432,135.6 C422.063998,134.383994 421.88,132.960008 421.88,131.328 L421.88,115.584 L427.352,115.584 L427.352,130.8 C427.352,132.976011 427.815995,134.511996 428.744,135.408 C429.672005,136.304004 431.191989,136.752 433.304,136.752 Z" id="υ" fill-opacity="0.27233356" fill="#FF9EC6" mask="url(#mask-2)"></path>
                    <path d="M324.504,89.2000023 L320.472,89.2000023 L320.472,86.6080023 L320.4,86.6080023 C320.135999,87.0880047 319.812002,87.5140004 319.428,87.8860023 C319.043998,88.2580041 318.630002,88.5820009 318.186,88.8580023 C317.741998,89.1340037 317.286002,89.3440016 316.818,89.4880023 C316.349998,89.632003 315.912002,89.7040023 315.504,89.7040023 C314.951997,89.7040023 314.376003,89.6080032 313.776,89.4160023 C313.175997,89.2240013 312.672002,88.8880047 312.264,88.4080023 L312.264,96.0760023 L308.16,96.0760023 L308.16,70.5880023 L312.264,70.5880023 L312.264,82.0000023 C312.264,83.6320104 312.575997,84.7839989 313.2,85.4560023 C313.824003,86.1280056 314.699994,86.4640023 315.828,86.4640023 C316.692004,86.4640023 317.411997,86.3320036 317.988,86.0680023 C318.564003,85.804001 319.031998,85.4500045 319.392,85.0060023 C319.752002,84.5620001 320.009999,84.0280054 320.166,83.4040023 C320.322001,82.7799992 320.4,82.1080059 320.4,81.3880023 L320.4,70.5880023 L324.504,70.5880023 L324.504,89.2000023 Z" id="μ" fill-opacity="0.26805933" fill="#FFD076" mask="url(#mask-2)" transform="translate(316.332000, 83.332002) rotate(-5.000000) translate(-316.332000, -83.332002) "></path>
                </g>
            </g>
        </g>
    </g>
</svg>