<?xml version="1.0" encoding="UTF-8"?>
<svg width="18px" height="17px" viewBox="0 0 18 17" version="1.1" xmlns="http://www.w3.org/2000/svg" xmlns:xlink="http://www.w3.org/1999/xlink">
    <!-- Generator: Sketch 51.3 (57544) - http://www.bohemiancoding.com/sketch -->
    <title>speaker</title>
    <desc>Created with Sketch.</desc>
    <defs></defs>
    <g id="v2" stroke="none" stroke-width="1" fill="none" fill-rule="evenodd">
        <g id="Desktop-HD" transform="translate(-762.000000, -146.000000)" fill="#1C2B42">
            <g id="speaker" transform="translate(762.000000, 146.000000)">
                <g id="Group-2">
                    <g id="Group">
                        <g id="audio-solid" transform="translate(0.190981, 0.190981)">
                            <rect id="Rectangle-6" x="0" y="4.51410658" width="3.90643839" height="7.0315891" rx="1"></rect>
                            <path d="M6.24113252,3.91356976 L10.8866622,0.300379982 C11.3226094,-0.0386900561 11.950885,0.039844394 12.2899551,0.475791586 C12.4264806,0.651324467 12.5006028,0.867356336 12.5006028,1.0897322 L12.5006028,14.9700701 C12.5006028,15.5223548 12.0528876,15.9700701 11.5006028,15.9700701 C11.278227,15.9700701 11.0621951,15.8959479 10.8866622,15.7594223 L6.24113252,12.1462325 C5.75395943,11.7673201 5.46901374,11.1847089 5.46901374,10.5675281 L5.46901374,5.49227419 C5.46901374,4.87509333 5.75395943,4.29248216 6.24113252,3.91356976 Z" id="Rectangle-7"></path>
                            <path d="M15.3556511,10.9836183 C16.5774363,10.6099385 17.1883289,9.62536613 17.1883289,8.02990113 C17.1883289,6.43442738 16.5774296,5.44985293 15.355631,5.07617777 L15.3556267,5.0761918 C14.8274981,4.91466883 14.2684251,5.21186141 14.1069021,5.73999001 C14.0779139,5.83477212 14.0631782,5.93333732 14.0631782,6.03245323 L14.063181,10.0273475 C14.063181,10.5796307 14.510895,11.0273447 15.0631782,11.0273447 C15.1622975,11.0273447 15.260866,11.0126081 15.3556511,10.9836183 Z" id="Oval-2"></path>
                        </g>
                    </g>
                </g>
            </g>
        </g>
    </g>
</svg>